#define delta_width 16
#define delta_height 16
static char delta_bits[] = {
  0x00, 0x00, 0x00, 0x00, 0x00, 0x00, 0x00, 0x00, 0x00, 0x00, 0x80, 0x01, 
  0xc0, 0x03, 0xe0, 0x07, 0x70, 0x0e, 0x38, 0x1c, 0x1c, 0x38, 0x0e, 0x70, 
  0xff, 0xff, 0xff, 0xff, 0x00, 0x00, 0x00, 0x00, };
